{
	"asset":{
		"generator":"Khronos glTF Blender I/O v4.4.56",
		"version":"2.0"
	},
	"scene":0,
	"scenes":[
		{
			"name":"Scene",
			"nodes":[
				0
			]
		}
	],
	"nodes":[
		{
			"mesh":0,
			"name":"Cone",
			"translation":[
				0,
				4.742733955383301,
				0
			]
		}
	],
	"meshes":[
		{
			"name":"Cone",
			"primitives":[
				{
					"attributes":{
						"POSITION":0,
						"NORMAL":1,
						"TEXCOORD_0":2
					},
					"indices":3
				}
			]
		}
	],
	"accessors":[
		{
			"bufferView":0,
			"componentType":5126,
			"count":12288,
			"max":[
				1.165052056312561,
				0.864741325378418,
				1.1650521755218506
			],
			"min":[
				-1.1650521755218506,
				-4.012024879455566,
				-1.1650521755218506
			],
			"type":"VEC3"
		},
		{
			"bufferView":1,
			"componentType":5126,
			"count":12288,
			"type":"VEC3"
		},
		{
			"bufferView":2,
			"componentType":5126,
			"count":12288,
			"type":"VEC2"
		},
		{
			"bufferView":3,
			"componentType":5123,
			"count":18432,
			"type":"SCALAR"
		}
	],
	"bufferViews":[
		{
			"buffer":0,
			"byteLength":147456,
			"byteOffset":0,
			"target":34962
		},
		{
			"buffer":0,
			"byteLength":147456,
			"byteOffset":147456,
			"target":34962
		},
		{
			"buffer":0,
			"byteLength":98304,
			"byteOffset":294912,
			"target":34962
		},
		{
			"buffer":0,
			"byteLength":36864,
			"byteOffset":393216,
			"target":34963
		}
	],
	"buffers":[
		{
			"byteLength":430080,
			"uri":"SiehtSchonAusWieEinButtplug.bin"
		}
	]
}
